<svg xmlns="http://www.w3.org/2000/svg" viewBox="0 0 100 100"><defs><style>.cls-1{fill:#f0f0f0;}.cls-2{fill:#0c0c0c;}</style></defs><title>Asset 2</title><g id="Layer_2" data-name="Layer 2"><g id="Layer_1-2" data-name="Layer 1"><circle class="cls-1" cx="50" cy="50" r="50"/><path class="cls-2" d="M100,50A50,50,0,1,0,14.92,85.6L30.49,54a21,21,0,1,1,18.14.59L39.28,36.15,14.91,85.61c.75.73,1.52,1.44,2.3,2.12L39.32,42.85,51,65.83l.77,1.52h0L66.84,97.09c1-.34,1.88-.71,2.81-1.1L53.41,64,70.47,29.35l23,45.34c.61-1.07,1.18-2.15,1.71-3.26v0A49.78,49.78,0,0,0,100,50Z"/></g></g></svg>